{"accessors" : [{"bufferView" : 0, "byteOffset" : 0, "componentType" : 5123, "count" : 942, "type" : "SCALAR", "max" : [571], "min" : [0]}, {"bufferView" : 1, "byteOffset" : 0, "componentType" : 5126, "count" : 572, "type" : "VEC3", "max" : [1.68450355529785, 0.510783612728119, 2.82696032524109], "min" : [-1.68450713157654, -0.357184022665024, -2.21812133105459E-08]}, {"bufferView" : 1, "byteOffset" : 12, "componentType" : 5126, "count" : 572, "type" : "VEC4", "max" : [1, 1, 1, 1], "min" : [1, 1, 1, 1]}, {"bufferView" : 1, "byteOffset" : 28, "componentType" : 5126, "count" : 572, "type" : "VEC3", "max" : [0.999988973140717, 0.999988973140717, 0.999988973140717], "min" : [-0.999988973140717, -0.999988973140717, -0.999988973140717]}, {"bufferView" : 1, "byteOffset" : 40, "componentType" : 5126, "count" : 572, "type" : "VEC2", "max" : [0.9867182970047, 1.03221309185028], "min" : [0.0176396369934082, 0.0147603750228882]}], "asset" : {"generator" : "Aspose.3D 20.2.1", "version" : "2.0"}, "buffers" : [{"uri" : "BeachBabe.bin", "byteLength" : 46680}], "bufferViews" : [{"buffer" : 0, "byteOffset" : 0, "byteLength" : 1884, "target" : 34963}, {"buffer" : 0, "byteOffset" : 1888, "byteLength" : 27456, "byteStride" : 48, "target" : 34962}, {"buffer" : 0, "byteOffset" : 29348, "byteLength" : 17329}], "images" : [{"mimeType" : "image/png", "bufferView" : 2}], "materials" : [{"pbrMetallicRoughness" : {"baseColorFactor" : [1, 1, 1, 1], "baseColorTexture" : {"index" : 0, "texCoord" : 0}, "metallicFactor" : 0.400000005960464, "roughnessFactor" : 0.301511347293854}, "emissiveFactor" : [0, 0, 0], "alphaMode" : "OPAQUE", "doubleSided" : false}], "meshes" : [{"primitives" : [{"attributes" : {"POSITION" : 1, "COLOR" : 2, "NORMAL" : 3, "TEXCOORD_0" : 4}, "indices" : 0, "material" : 0, "mode" : 4}]}], "nodes" : [{"mesh" : 0, "name" : "SK_Character_BeachBabe"}, {"children" : [0], "matrix" : [1, 0, 0, 0, 0, 3.42285429999478E-08, -0.999999965771457, 0, 0, 0.999999965771457, 3.42285429999478E-08, 0, 0, 0, 0, 1], "name" : "SK_Character_BeachBabe"}, {"children" : [1], "name" : "RootNode"}], "samplers" : [{"magFilter" : 9728, "minFilter" : 9728, "wrapS" : 10497, "wrapT" : 10497}], "scene" : 0, "scenes" : [{"nodes" : [2]}], "textures" : [{"sampler" : 0, "source" : 0}]}